<?xml version="1.0" encoding="utf-8"?>
<svg xmlns="http://www.w3.org/2000/svg" version="1.1" width="512" height="512" viewBox="0 0 500 500">
  <g transform="scale(16.129)">
    <g transform="translate(1,1)">
      <g>
        <g transform="translate(3.5,3.5)">
          <path fill-rule="evenodd" d="M-3.5 -3.5L3.5 -3.5L3.5 3.5L-3.5 3.5ZM-2.5 -2.5L-2.5 2.5L2.5 2.5L2.5 -2.5Z" style="fill: rgb(255, 255, 255);"/>
          <path fill-rule="evenodd" d="M-1.5 -1.5L1.5 -1.5L1.5 1.5L-1.5 1.5Z" style="fill: rgb(255, 255, 255);"/>
        </g>
      </g>
      <g>
        <g transform="translate(25.5,3.5)">
          <g transform="rotate(90)">
            <path fill-rule="evenodd" d="M-3.5 -3.5L3.5 -3.5L3.5 3.5L-3.5 3.5ZM-2.5 -2.5L-2.5 2.5L2.5 2.5L2.5 -2.5Z" style="fill: rgb(255, 255, 255);"/>
            <path fill-rule="evenodd" d="M-1.5 -1.5L1.5 -1.5L1.5 1.5L-1.5 1.5Z" style="fill: rgb(255, 255, 255);"/>
          </g>
        </g>
      </g>
      <g>
        <g transform="translate(3.5,25.5)">
          <g transform="rotate(-90)">
            <path fill-rule="evenodd" d="M-3.5 -3.5L3.5 -3.5L3.5 3.5L-3.5 3.5ZM-2.5 -2.5L-2.5 2.5L2.5 2.5L2.5 -2.5Z" style="fill: rgb(255, 255, 255);"/>
            <path fill-rule="evenodd" d="M-1.5 -1.5L1.5 -1.5L1.5 1.5L-1.5 1.5Z" style="fill: rgb(255, 255, 255);"/>
          </g>
        </g>
      </g>
      <path fill-rule="evenodd" d="M9 0L9 1L11 1L11 3L12 3L12 5L10 5L10 7L9 7L9 4L10 4L10 3L9 3L9 2L8 2L8 8L11 8L11 9L10 9L10 11L7 11L7 10L5 10L5 11L7 11L7 12L6 12L6 13L7 13L7 12L9 12L9 13L8 13L8 15L7 15L7 14L5 14L5 13L4 13L4 12L3 12L3 11L1 11L1 13L0 13L0 15L1 15L1 17L0 17L0 21L1 21L1 17L2 17L2 18L6 18L6 19L4 19L4 21L8 21L8 22L9 22L9 23L8 23L8 27L9 27L9 25L10 25L10 24L11 24L11 23L12 23L12 25L11 25L11 27L12 27L12 28L13 28L13 29L17 29L17 28L18 28L18 29L20 29L20 27L19 27L19 25L20 25L20 26L21 26L21 27L22 27L22 26L21 26L21 25L23 25L23 27L24 27L24 25L25 25L25 23L26 23L26 25L29 25L29 23L27 23L27 22L28 22L28 20L29 20L29 19L27 19L27 18L26 18L26 17L25 17L25 15L27 15L27 16L29 16L29 14L28 14L28 13L27 13L27 14L26 14L26 13L24 13L24 14L23 14L23 13L22 13L22 12L23 12L23 11L20 11L20 10L15 10L15 11L17 11L17 13L16 13L16 12L15 12L15 14L14 14L14 13L13 13L13 15L12 15L12 11L11 11L11 10L12 10L12 9L13 9L13 8L15 8L15 9L17 9L17 8L18 8L18 9L19 9L19 8L20 8L20 9L21 9L21 6L20 6L20 7L19 7L19 6L18 6L18 5L16 5L16 4L18 4L18 3L20 3L20 4L19 4L19 5L20 5L20 4L21 4L21 2L20 2L20 0L19 0L19 1L17 1L17 0L16 0L16 1L13 1L13 0ZM12 1L12 2L13 2L13 5L12 5L12 6L11 6L11 7L12 7L12 6L13 6L13 7L14 7L14 6L15 6L15 8L17 8L17 7L18 7L18 6L17 6L17 7L16 7L16 6L15 6L15 5L14 5L14 4L15 4L15 3L17 3L17 2L13 2L13 1ZM13 5L13 6L14 6L14 5ZM0 8L0 9L1 9L1 8ZM2 8L2 10L3 10L3 9L7 9L7 8ZM22 8L22 9L23 9L23 10L24 10L24 9L25 9L25 11L24 11L24 12L26 12L26 11L27 11L27 10L28 10L28 9L27 9L27 8ZM8 9L8 10L9 10L9 9ZM26 9L26 10L27 10L27 9ZM10 11L10 12L11 12L11 11ZM28 11L28 12L29 12L29 11ZM2 12L2 13L1 13L1 15L4 15L4 14L2 14L2 13L3 13L3 12ZM18 12L18 13L17 13L17 14L16 14L16 15L14 15L14 16L13 16L13 19L11 19L11 20L10 20L10 18L7 18L7 17L9 17L9 16L10 16L10 15L11 15L11 13L10 13L10 15L9 15L9 16L7 16L7 15L5 15L5 16L7 16L7 17L6 17L6 18L7 18L7 19L6 19L6 20L8 20L8 21L9 21L9 20L10 20L10 21L11 21L11 22L12 22L12 23L13 23L13 22L12 22L12 21L15 21L15 22L18 22L18 20L19 20L19 22L20 22L20 20L19 20L19 19L23 19L23 18L24 18L24 19L25 19L25 20L27 20L27 19L25 19L25 18L24 18L24 17L23 17L23 18L22 18L22 16L21 16L21 17L20 17L20 16L19 16L19 15L17 15L17 14L20 14L20 15L23 15L23 14L22 14L22 13L21 13L21 12ZM20 13L20 14L21 14L21 13ZM24 14L24 15L25 15L25 14ZM16 15L16 16L14 16L14 17L15 17L15 19L14 19L14 20L15 20L15 21L17 21L17 20L18 20L18 19L19 19L19 18L20 18L20 17L18 17L18 16L17 16L17 15ZM11 16L11 17L12 17L12 16ZM17 17L17 18L18 18L18 17ZM2 19L2 21L3 21L3 19ZM8 19L8 20L9 20L9 19ZM15 19L15 20L17 20L17 19ZM11 20L11 21L12 21L12 20ZM21 21L21 24L24 24L24 21ZM25 21L25 22L27 22L27 21ZM22 22L22 23L23 23L23 22ZM14 23L14 24L13 24L13 25L12 25L12 27L13 27L13 28L14 28L14 26L18 26L18 25L14 25L14 24L19 24L19 23ZM13 25L13 26L14 26L14 25ZM26 26L26 27L25 27L25 28L24 28L24 29L27 29L27 27L28 27L28 28L29 28L29 27L28 27L28 26ZM15 27L15 28L17 28L17 27ZM18 27L18 28L19 28L19 27ZM8 28L8 29L10 29L10 28ZM21 28L21 29L23 29L23 28Z" style="fill: rgb(255, 255, 255);"/>
    </g>
  </g>
</svg>